<mxfile host="app.diagrams.net" modified="2024-02-24T07:06:14.141Z" agent="Mozilla/5.0 (Windows NT 10.0; Win64; x64) AppleWebKit/537.36 (KHTML, like Gecko) Chrome/121.0.0.0 Safari/537.36" etag="vtX5N0Tma8zsORKbCZ7A" version="23.1.6" type="device">
  <diagram name="Page-1" id="EkWZ_NMyeRmqOkdSczye">
    <mxGraphModel dx="2643" dy="965" grid="1" gridSize="10" guides="1" tooltips="1" connect="1" arrows="1" fold="1" page="1" pageScale="1" pageWidth="850" pageHeight="1100" math="0" shadow="0">
      <root>
        <mxCell id="0" />
        <mxCell id="1" parent="0" />
        <mxCell id="OfdgGCOd13ih8EyAvBw2-1" value="&lt;b&gt;Задача 2&lt;/b&gt;&lt;span style=&quot;color: rgb(44, 45, 48); font-family: Onest, Roboto, &amp;quot;San Francisco&amp;quot;, &amp;quot;Helvetica Neue&amp;quot;, Helvetica, Arial; font-size: 15px; background-color: rgb(255, 255, 255);&quot;&gt;&lt;b&gt;:&lt;/b&gt; &lt;/span&gt;&lt;span style=&quot;color: rgb(44, 45, 48); font-family: Onest, Roboto, &amp;quot;San Francisco&amp;quot;, &amp;quot;Helvetica Neue&amp;quot;, Helvetica, Arial; background-color: rgb(255, 255, 255);&quot;&gt;&lt;font style=&quot;font-size: 13px;&quot;&gt;Напишите программу, которая принимает на вход координаты точки (X и Y), причём X ≠ 0 и Y ≠ 0 и выдаёт номер координатной четверти плоскости, в которой находится эта точка.&lt;/font&gt;&lt;/span&gt;" style="text;html=1;align=left;verticalAlign=middle;whiteSpace=wrap;rounded=0;" vertex="1" parent="1">
          <mxGeometry x="20" y="20" width="670" height="30" as="geometry" />
        </mxCell>
        <mxCell id="OfdgGCOd13ih8EyAvBw2-4" value="" style="edgeStyle=orthogonalEdgeStyle;rounded=0;orthogonalLoop=1;jettySize=auto;html=1;" edge="1" parent="1" source="OfdgGCOd13ih8EyAvBw2-2" target="OfdgGCOd13ih8EyAvBw2-3">
          <mxGeometry relative="1" as="geometry" />
        </mxCell>
        <mxCell id="OfdgGCOd13ih8EyAvBw2-2" value="Start" style="ellipse;whiteSpace=wrap;html=1;" vertex="1" parent="1">
          <mxGeometry x="320" y="80" width="120" height="80" as="geometry" />
        </mxCell>
        <mxCell id="OfdgGCOd13ih8EyAvBw2-6" style="edgeStyle=orthogonalEdgeStyle;rounded=0;orthogonalLoop=1;jettySize=auto;html=1;exitX=0.5;exitY=1;exitDx=0;exitDy=0;entryX=0.5;entryY=0;entryDx=0;entryDy=0;" edge="1" parent="1" source="OfdgGCOd13ih8EyAvBw2-3" target="OfdgGCOd13ih8EyAvBw2-5">
          <mxGeometry relative="1" as="geometry" />
        </mxCell>
        <mxCell id="OfdgGCOd13ih8EyAvBw2-3" value="X , Y" style="shape=parallelogram;perimeter=parallelogramPerimeter;whiteSpace=wrap;html=1;fixedSize=1;" vertex="1" parent="1">
          <mxGeometry x="300" y="210" width="160" height="90" as="geometry" />
        </mxCell>
        <mxCell id="OfdgGCOd13ih8EyAvBw2-23" style="edgeStyle=orthogonalEdgeStyle;rounded=0;orthogonalLoop=1;jettySize=auto;html=1;exitX=0;exitY=0.5;exitDx=0;exitDy=0;entryX=1;entryY=0.5;entryDx=0;entryDy=0;" edge="1" parent="1" source="OfdgGCOd13ih8EyAvBw2-5" target="OfdgGCOd13ih8EyAvBw2-22">
          <mxGeometry relative="1" as="geometry" />
        </mxCell>
        <mxCell id="OfdgGCOd13ih8EyAvBw2-24" value="NO" style="edgeLabel;html=1;align=center;verticalAlign=middle;resizable=0;points=[];" vertex="1" connectable="0" parent="OfdgGCOd13ih8EyAvBw2-23">
          <mxGeometry x="-0.0734" relative="1" as="geometry">
            <mxPoint as="offset" />
          </mxGeometry>
        </mxCell>
        <mxCell id="OfdgGCOd13ih8EyAvBw2-5" value="X &amp;gt; 0 ?" style="rhombus;whiteSpace=wrap;html=1;" vertex="1" parent="1">
          <mxGeometry x="297.5" y="360" width="165" height="120" as="geometry" />
        </mxCell>
        <mxCell id="OfdgGCOd13ih8EyAvBw2-12" value="" style="edgeStyle=orthogonalEdgeStyle;rounded=0;orthogonalLoop=1;jettySize=auto;html=1;" edge="1" parent="1" source="OfdgGCOd13ih8EyAvBw2-7" target="OfdgGCOd13ih8EyAvBw2-11">
          <mxGeometry relative="1" as="geometry" />
        </mxCell>
        <mxCell id="OfdgGCOd13ih8EyAvBw2-19" value="YES" style="edgeLabel;html=1;align=center;verticalAlign=middle;resizable=0;points=[];" vertex="1" connectable="0" parent="OfdgGCOd13ih8EyAvBw2-12">
          <mxGeometry x="-0.1871" y="-2" relative="1" as="geometry">
            <mxPoint as="offset" />
          </mxGeometry>
        </mxCell>
        <mxCell id="OfdgGCOd13ih8EyAvBw2-17" style="edgeStyle=orthogonalEdgeStyle;rounded=0;orthogonalLoop=1;jettySize=auto;html=1;exitX=0.5;exitY=1;exitDx=0;exitDy=0;entryX=-0.006;entryY=0.448;entryDx=0;entryDy=0;entryPerimeter=0;" edge="1" parent="1" source="OfdgGCOd13ih8EyAvBw2-7" target="OfdgGCOd13ih8EyAvBw2-15">
          <mxGeometry relative="1" as="geometry">
            <mxPoint x="633" y="530" as="targetPoint" />
          </mxGeometry>
        </mxCell>
        <mxCell id="OfdgGCOd13ih8EyAvBw2-18" value="NO" style="edgeLabel;html=1;align=center;verticalAlign=middle;resizable=0;points=[];" vertex="1" connectable="0" parent="OfdgGCOd13ih8EyAvBw2-17">
          <mxGeometry x="-0.1007" y="1" relative="1" as="geometry">
            <mxPoint as="offset" />
          </mxGeometry>
        </mxCell>
        <mxCell id="OfdgGCOd13ih8EyAvBw2-7" value="Y &amp;gt; 0 ?" style="rhombus;whiteSpace=wrap;html=1;" vertex="1" parent="1">
          <mxGeometry x="550" y="360" width="165" height="120" as="geometry" />
        </mxCell>
        <mxCell id="OfdgGCOd13ih8EyAvBw2-9" style="edgeStyle=orthogonalEdgeStyle;rounded=0;orthogonalLoop=1;jettySize=auto;html=1;exitX=1;exitY=0.5;exitDx=0;exitDy=0;entryX=0;entryY=0.5;entryDx=0;entryDy=0;" edge="1" parent="1" source="OfdgGCOd13ih8EyAvBw2-5" target="OfdgGCOd13ih8EyAvBw2-7">
          <mxGeometry relative="1" as="geometry">
            <mxPoint x="540" y="420" as="targetPoint" />
          </mxGeometry>
        </mxCell>
        <mxCell id="OfdgGCOd13ih8EyAvBw2-10" value="YES" style="edgeLabel;html=1;align=center;verticalAlign=middle;resizable=0;points=[];" vertex="1" connectable="0" parent="OfdgGCOd13ih8EyAvBw2-9">
          <mxGeometry x="0.0515" y="-2" relative="1" as="geometry">
            <mxPoint as="offset" />
          </mxGeometry>
        </mxCell>
        <mxCell id="OfdgGCOd13ih8EyAvBw2-40" style="edgeStyle=orthogonalEdgeStyle;rounded=0;orthogonalLoop=1;jettySize=auto;html=1;exitX=1;exitY=0.5;exitDx=0;exitDy=0;" edge="1" parent="1" source="OfdgGCOd13ih8EyAvBw2-11">
          <mxGeometry relative="1" as="geometry">
            <mxPoint x="440" y="791.6666666666666" as="targetPoint" />
            <Array as="points">
              <mxPoint x="980" y="420" />
              <mxPoint x="980" y="790" />
              <mxPoint x="440" y="790" />
            </Array>
          </mxGeometry>
        </mxCell>
        <mxCell id="OfdgGCOd13ih8EyAvBw2-11" value="I четверть" style="shape=document;whiteSpace=wrap;html=1;boundedLbl=1;" vertex="1" parent="1">
          <mxGeometry x="790" y="375" width="132.5" height="90" as="geometry" />
        </mxCell>
        <mxCell id="OfdgGCOd13ih8EyAvBw2-39" style="edgeStyle=orthogonalEdgeStyle;rounded=0;orthogonalLoop=1;jettySize=auto;html=1;exitX=1;exitY=0.5;exitDx=0;exitDy=0;entryX=1;entryY=0.5;entryDx=0;entryDy=0;" edge="1" parent="1" source="OfdgGCOd13ih8EyAvBw2-15" target="OfdgGCOd13ih8EyAvBw2-36">
          <mxGeometry relative="1" as="geometry">
            <Array as="points">
              <mxPoint x="980" y="595" />
              <mxPoint x="980" y="790" />
            </Array>
          </mxGeometry>
        </mxCell>
        <mxCell id="OfdgGCOd13ih8EyAvBw2-15" value="IV четверть" style="shape=document;whiteSpace=wrap;html=1;boundedLbl=1;" vertex="1" parent="1">
          <mxGeometry x="790" y="550" width="132.5" height="90" as="geometry" />
        </mxCell>
        <mxCell id="OfdgGCOd13ih8EyAvBw2-29" style="edgeStyle=orthogonalEdgeStyle;rounded=0;orthogonalLoop=1;jettySize=auto;html=1;exitX=0.5;exitY=1;exitDx=0;exitDy=0;entryX=1;entryY=0.5;entryDx=0;entryDy=0;" edge="1" parent="1" source="OfdgGCOd13ih8EyAvBw2-22" target="OfdgGCOd13ih8EyAvBw2-33">
          <mxGeometry relative="1" as="geometry">
            <mxPoint x="132.5" y="530" as="targetPoint" />
          </mxGeometry>
        </mxCell>
        <mxCell id="OfdgGCOd13ih8EyAvBw2-32" value="NO" style="edgeLabel;html=1;align=center;verticalAlign=middle;resizable=0;points=[];" vertex="1" connectable="0" parent="OfdgGCOd13ih8EyAvBw2-29">
          <mxGeometry x="-0.1283" y="2" relative="1" as="geometry">
            <mxPoint as="offset" />
          </mxGeometry>
        </mxCell>
        <mxCell id="OfdgGCOd13ih8EyAvBw2-22" value="Y &amp;gt; 0 ?" style="rhombus;whiteSpace=wrap;html=1;" vertex="1" parent="1">
          <mxGeometry x="50" y="360" width="165" height="120" as="geometry" />
        </mxCell>
        <mxCell id="OfdgGCOd13ih8EyAvBw2-38" style="edgeStyle=orthogonalEdgeStyle;rounded=0;orthogonalLoop=1;jettySize=auto;html=1;exitX=0;exitY=0.5;exitDx=0;exitDy=0;entryX=0;entryY=0.5;entryDx=0;entryDy=0;" edge="1" parent="1" source="OfdgGCOd13ih8EyAvBw2-25" target="OfdgGCOd13ih8EyAvBw2-36">
          <mxGeometry relative="1" as="geometry">
            <Array as="points">
              <mxPoint x="-200" y="425" />
              <mxPoint x="-200" y="790" />
            </Array>
          </mxGeometry>
        </mxCell>
        <mxCell id="OfdgGCOd13ih8EyAvBw2-25" value="II четверть" style="shape=document;whiteSpace=wrap;html=1;boundedLbl=1;" vertex="1" parent="1">
          <mxGeometry x="-150" y="380" width="132.5" height="90" as="geometry" />
        </mxCell>
        <mxCell id="OfdgGCOd13ih8EyAvBw2-26" style="edgeStyle=orthogonalEdgeStyle;rounded=0;orthogonalLoop=1;jettySize=auto;html=1;exitX=0;exitY=0.5;exitDx=0;exitDy=0;entryX=1.03;entryY=0.434;entryDx=0;entryDy=0;entryPerimeter=0;" edge="1" parent="1" source="OfdgGCOd13ih8EyAvBw2-22" target="OfdgGCOd13ih8EyAvBw2-25">
          <mxGeometry relative="1" as="geometry" />
        </mxCell>
        <mxCell id="OfdgGCOd13ih8EyAvBw2-27" value="YES" style="edgeLabel;html=1;align=center;verticalAlign=middle;resizable=0;points=[];" vertex="1" connectable="0" parent="OfdgGCOd13ih8EyAvBw2-26">
          <mxGeometry x="0.0074" y="1" relative="1" as="geometry">
            <mxPoint as="offset" />
          </mxGeometry>
        </mxCell>
        <mxCell id="OfdgGCOd13ih8EyAvBw2-37" style="edgeStyle=orthogonalEdgeStyle;rounded=0;orthogonalLoop=1;jettySize=auto;html=1;exitX=0;exitY=0.5;exitDx=0;exitDy=0;entryX=0;entryY=0.5;entryDx=0;entryDy=0;" edge="1" parent="1" source="OfdgGCOd13ih8EyAvBw2-33" target="OfdgGCOd13ih8EyAvBw2-36">
          <mxGeometry relative="1" as="geometry">
            <Array as="points">
              <mxPoint x="-200" y="595" />
              <mxPoint x="-200" y="790" />
            </Array>
          </mxGeometry>
        </mxCell>
        <mxCell id="OfdgGCOd13ih8EyAvBw2-33" value="III четверть" style="shape=document;whiteSpace=wrap;html=1;boundedLbl=1;" vertex="1" parent="1">
          <mxGeometry x="-150" y="550" width="132.5" height="90" as="geometry" />
        </mxCell>
        <mxCell id="OfdgGCOd13ih8EyAvBw2-36" value="End" style="ellipse;whiteSpace=wrap;html=1;" vertex="1" parent="1">
          <mxGeometry x="320" y="750" width="120" height="80" as="geometry" />
        </mxCell>
      </root>
    </mxGraphModel>
  </diagram>
</mxfile>
